# xmcd CD database file
#
# Track frame offsets:
#	300
#	13048
#	29945
#	42925
#	59165
#	76415
#	90277
#	111584
#	128634
#	143097
#	158472
#	176469
#	193253
#	213184
#	226921
#
# Disc length: 3301 seconds
#
# Revision: 3
# Processed by: cddbd v1.5.2PL0 Copyright (c) Steve Scherf et al.
# Submitted via: CDex 1.70beta2
#
DISCID=cc0ce10f
DTITLE=Gunter Gabriel - Hey Boss, ich brauch mehr Geld
DYEAR=2005
DGENRE=Country
TTITLE0=Hey Boss, ich brauch mehr Geld
TTITLE1=Komm unter meine Decke
TTITLE2=Papa trinkt Bier
TTITLE3=Willi Klein, der Fernsehmann
TTITLE4=Mit dem Hammer in der Hand
TTITLE5=Morgen
TTITLE6=Franky's Curry Station
TTITLE7=Hey Lisa (Hey Ivonne)
TTITLE8=Deutschland ist ...
TTITLE9=Ich Werd' Gesucht In Bremerhaven
TTITLE10=Intercity Linie Nummer 4
TTITLE11=Ich schlaf' nicht gern allein
TTITLE12=Mädchen ab 30
TTITLE13=Ohne Moos nichts los
TTITLE14=Er ist ein Kerl (Der 30-Tonner Diesel)
EXTD=YEAR: 2005
EXTT0=
EXTT1=
EXTT2=
EXTT3=
EXTT4=
EXTT5=
EXTT6=
EXTT7=
EXTT8=
EXTT9=
EXTT10=
EXTT11=
EXTT12=
EXTT13=
EXTT14=
PLAYORDER=
